<mxfile host="Electron" agent="Mozilla/5.0 (Windows NT 10.0; Win64; x64) AppleWebKit/537.36 (KHTML, like Gecko) draw.io/28.2.5 Chrome/138.0.7204.251 Electron/37.6.1 Safari/537.36" version="28.2.5">
  <diagram name="Page-1" id="5SKAm97IUk-dDTujLmm5">
    <mxGraphModel dx="595" dy="385" grid="1" gridSize="10" guides="1" tooltips="1" connect="1" arrows="1" fold="1" page="1" pageScale="1" pageWidth="850" pageHeight="1100" math="1" shadow="0">
      <root>
        <mxCell id="0" />
        <mxCell id="1" parent="0" />
        <mxCell id="32SLlUpQdxrGUWhNNxCO-3" value="\(n=1\)" style="whiteSpace=wrap;html=1;aspect=fixed;verticalAlign=top;labelPosition=center;verticalLabelPosition=bottom;align=center;" vertex="1" parent="1">
          <mxGeometry x="170" y="270" width="72" height="72" as="geometry" />
        </mxCell>
        <mxCell id="32SLlUpQdxrGUWhNNxCO-5" value="\(n=4\)" style="whiteSpace=wrap;html=1;aspect=fixed;verticalAlign=top;labelPosition=center;verticalLabelPosition=bottom;align=center;" vertex="1" parent="1">
          <mxGeometry x="280" y="270" width="72" height="72" as="geometry" />
        </mxCell>
        <mxCell id="32SLlUpQdxrGUWhNNxCO-6" value="" style="whiteSpace=wrap;html=1;aspect=fixed;verticalAlign=top;labelPosition=center;verticalLabelPosition=bottom;align=center;" vertex="1" parent="1">
          <mxGeometry x="280" y="270" width="36" height="36" as="geometry" />
        </mxCell>
        <mxCell id="32SLlUpQdxrGUWhNNxCO-7" value="" style="whiteSpace=wrap;html=1;aspect=fixed;verticalAlign=top;labelPosition=center;verticalLabelPosition=bottom;align=center;" vertex="1" parent="1">
          <mxGeometry x="316" y="270" width="36" height="36" as="geometry" />
        </mxCell>
        <mxCell id="32SLlUpQdxrGUWhNNxCO-8" value="" style="whiteSpace=wrap;html=1;aspect=fixed;verticalAlign=top;labelPosition=center;verticalLabelPosition=bottom;align=center;" vertex="1" parent="1">
          <mxGeometry x="316" y="306" width="36" height="36" as="geometry" />
        </mxCell>
        <mxCell id="32SLlUpQdxrGUWhNNxCO-10" value="\(n=9\)" style="whiteSpace=wrap;html=1;aspect=fixed;verticalAlign=top;labelPosition=center;verticalLabelPosition=bottom;align=center;" vertex="1" parent="1">
          <mxGeometry x="389" y="270" width="72" height="72" as="geometry" />
        </mxCell>
        <mxCell id="32SLlUpQdxrGUWhNNxCO-11" value="" style="whiteSpace=wrap;html=1;aspect=fixed;verticalAlign=top;labelPosition=center;verticalLabelPosition=bottom;align=center;" vertex="1" parent="1">
          <mxGeometry x="389" y="270" width="24" height="24" as="geometry" />
        </mxCell>
        <mxCell id="32SLlUpQdxrGUWhNNxCO-12" value="" style="whiteSpace=wrap;html=1;aspect=fixed;verticalAlign=top;labelPosition=center;verticalLabelPosition=bottom;align=center;" vertex="1" parent="1">
          <mxGeometry x="413" y="270" width="24" height="24" as="geometry" />
        </mxCell>
        <mxCell id="32SLlUpQdxrGUWhNNxCO-13" value="" style="whiteSpace=wrap;html=1;aspect=fixed;verticalAlign=top;labelPosition=center;verticalLabelPosition=bottom;align=center;" vertex="1" parent="1">
          <mxGeometry x="437" y="270" width="24" height="24" as="geometry" />
        </mxCell>
        <mxCell id="32SLlUpQdxrGUWhNNxCO-14" value="" style="whiteSpace=wrap;html=1;aspect=fixed;verticalAlign=top;labelPosition=center;verticalLabelPosition=bottom;align=center;" vertex="1" parent="1">
          <mxGeometry x="389" y="294" width="24" height="24" as="geometry" />
        </mxCell>
        <mxCell id="32SLlUpQdxrGUWhNNxCO-15" value="" style="whiteSpace=wrap;html=1;aspect=fixed;verticalAlign=top;labelPosition=center;verticalLabelPosition=bottom;align=center;" vertex="1" parent="1">
          <mxGeometry x="413" y="294" width="24" height="24" as="geometry" />
        </mxCell>
        <mxCell id="32SLlUpQdxrGUWhNNxCO-16" value="" style="whiteSpace=wrap;html=1;aspect=fixed;verticalAlign=top;labelPosition=center;verticalLabelPosition=bottom;align=center;" vertex="1" parent="1">
          <mxGeometry x="437" y="294" width="24" height="24" as="geometry" />
        </mxCell>
        <mxCell id="32SLlUpQdxrGUWhNNxCO-17" value="" style="whiteSpace=wrap;html=1;aspect=fixed;verticalAlign=top;labelPosition=center;verticalLabelPosition=bottom;align=center;" vertex="1" parent="1">
          <mxGeometry x="389" y="318" width="24" height="24" as="geometry" />
        </mxCell>
        <mxCell id="32SLlUpQdxrGUWhNNxCO-18" value="" style="whiteSpace=wrap;html=1;aspect=fixed;verticalAlign=top;labelPosition=center;verticalLabelPosition=bottom;align=center;" vertex="1" parent="1">
          <mxGeometry x="413" y="318" width="24" height="24" as="geometry" />
        </mxCell>
        <mxCell id="32SLlUpQdxrGUWhNNxCO-19" value="\(n=16\)" style="whiteSpace=wrap;html=1;aspect=fixed;verticalAlign=top;labelPosition=center;verticalLabelPosition=bottom;align=center;" vertex="1" parent="1">
          <mxGeometry x="494" y="270" width="72" height="72" as="geometry" />
        </mxCell>
        <mxCell id="32SLlUpQdxrGUWhNNxCO-20" value="" style="whiteSpace=wrap;html=1;aspect=fixed;verticalAlign=top;labelPosition=center;verticalLabelPosition=bottom;align=center;" vertex="1" parent="1">
          <mxGeometry x="494" y="270" width="18" height="18" as="geometry" />
        </mxCell>
        <mxCell id="32SLlUpQdxrGUWhNNxCO-21" value="" style="whiteSpace=wrap;html=1;aspect=fixed;verticalAlign=top;labelPosition=center;verticalLabelPosition=bottom;align=center;" vertex="1" parent="1">
          <mxGeometry x="512" y="270" width="18" height="18" as="geometry" />
        </mxCell>
        <mxCell id="32SLlUpQdxrGUWhNNxCO-22" value="" style="whiteSpace=wrap;html=1;aspect=fixed;verticalAlign=top;labelPosition=center;verticalLabelPosition=bottom;align=center;" vertex="1" parent="1">
          <mxGeometry x="530" y="270" width="18" height="18" as="geometry" />
        </mxCell>
        <mxCell id="32SLlUpQdxrGUWhNNxCO-23" value="" style="whiteSpace=wrap;html=1;aspect=fixed;verticalAlign=top;labelPosition=center;verticalLabelPosition=bottom;align=center;" vertex="1" parent="1">
          <mxGeometry x="548" y="270" width="18" height="18" as="geometry" />
        </mxCell>
        <mxCell id="32SLlUpQdxrGUWhNNxCO-24" value="" style="whiteSpace=wrap;html=1;aspect=fixed;verticalAlign=top;labelPosition=center;verticalLabelPosition=bottom;align=center;" vertex="1" parent="1">
          <mxGeometry x="494" y="288" width="18" height="18" as="geometry" />
        </mxCell>
        <mxCell id="32SLlUpQdxrGUWhNNxCO-25" value="" style="whiteSpace=wrap;html=1;aspect=fixed;verticalAlign=top;labelPosition=center;verticalLabelPosition=bottom;align=center;" vertex="1" parent="1">
          <mxGeometry x="512" y="288" width="18" height="18" as="geometry" />
        </mxCell>
        <mxCell id="32SLlUpQdxrGUWhNNxCO-26" value="" style="whiteSpace=wrap;html=1;aspect=fixed;verticalAlign=top;labelPosition=center;verticalLabelPosition=bottom;align=center;" vertex="1" parent="1">
          <mxGeometry x="530" y="288" width="18" height="18" as="geometry" />
        </mxCell>
        <mxCell id="32SLlUpQdxrGUWhNNxCO-27" value="" style="whiteSpace=wrap;html=1;aspect=fixed;verticalAlign=top;labelPosition=center;verticalLabelPosition=bottom;align=center;" vertex="1" parent="1">
          <mxGeometry x="548" y="288" width="18" height="18" as="geometry" />
        </mxCell>
        <mxCell id="32SLlUpQdxrGUWhNNxCO-28" value="" style="whiteSpace=wrap;html=1;aspect=fixed;verticalAlign=top;labelPosition=center;verticalLabelPosition=bottom;align=center;" vertex="1" parent="1">
          <mxGeometry x="494" y="306" width="18" height="18" as="geometry" />
        </mxCell>
        <mxCell id="32SLlUpQdxrGUWhNNxCO-29" value="" style="whiteSpace=wrap;html=1;aspect=fixed;verticalAlign=top;labelPosition=center;verticalLabelPosition=bottom;align=center;" vertex="1" parent="1">
          <mxGeometry x="512" y="306" width="18" height="18" as="geometry" />
        </mxCell>
        <mxCell id="32SLlUpQdxrGUWhNNxCO-30" value="" style="whiteSpace=wrap;html=1;aspect=fixed;verticalAlign=top;labelPosition=center;verticalLabelPosition=bottom;align=center;" vertex="1" parent="1">
          <mxGeometry x="530" y="306" width="18" height="18" as="geometry" />
        </mxCell>
        <mxCell id="32SLlUpQdxrGUWhNNxCO-31" value="" style="whiteSpace=wrap;html=1;aspect=fixed;verticalAlign=top;labelPosition=center;verticalLabelPosition=bottom;align=center;" vertex="1" parent="1">
          <mxGeometry x="548" y="306" width="18" height="18" as="geometry" />
        </mxCell>
        <mxCell id="32SLlUpQdxrGUWhNNxCO-32" value="" style="whiteSpace=wrap;html=1;aspect=fixed;verticalAlign=top;labelPosition=center;verticalLabelPosition=bottom;align=center;" vertex="1" parent="1">
          <mxGeometry x="494" y="324" width="18" height="18" as="geometry" />
        </mxCell>
        <mxCell id="32SLlUpQdxrGUWhNNxCO-33" value="" style="whiteSpace=wrap;html=1;aspect=fixed;verticalAlign=top;labelPosition=center;verticalLabelPosition=bottom;align=center;" vertex="1" parent="1">
          <mxGeometry x="512" y="324" width="18" height="18" as="geometry" />
        </mxCell>
        <mxCell id="32SLlUpQdxrGUWhNNxCO-34" value="" style="whiteSpace=wrap;html=1;aspect=fixed;verticalAlign=top;labelPosition=center;verticalLabelPosition=bottom;align=center;" vertex="1" parent="1">
          <mxGeometry x="530" y="324" width="18" height="18" as="geometry" />
        </mxCell>
      </root>
    </mxGraphModel>
  </diagram>
</mxfile>
